# xmcd
# Copyright (C) 1995-1998 Ti Kan
#
# Track frame offsets:
#       150
#       45767
#       79224
#       111301
#       146932
#       173510
#       206747
#       240946
#
# Disc length: 3742 seconds
#
# Revision: 0
# Processed by: cddbd v1.5.2PL0 Copyright (c) Steve Scherf et al.
# Submitted via: CD-Import v1.0
#
DISCID=630e9c08
DTITLE=Lucca - Reformation - The Remixes
DYEAR=09
DGENRE=
TTITLE0=Reformation (Robert Babicz Remix)
TTITLE1=Duesenberg (Mistress De Funk Remix)
TTITLE2=Hundertwasser (Anil Chawla Remix)
TTITLE3=Reformation (Pig and Dan Remix)
TTITLE4=Quantum (Rebekah's Mix)
TTITLE5=Duesenberg (Reset Robot Remix)
TTITLE6=Quantum (Inxec and Tolfrey Remix)
TTITLE7=Woodblocker (Funk D'void Remix)
EXTD=
EXTT0=
EXTT1=
EXTT2=
EXTT3=
EXTT4=
EXTT5=
EXTT6=
EXTT7=
PLAYORDER=
